<?xml version="1.0" encoding="UTF-8"?>
<svg width="24px" height="24px" viewBox="0 0 24 24" version="1.1" xmlns="http://www.w3.org/2000/svg" xmlns:xlink="http://www.w3.org/1999/xlink">
    <!-- Generator: Sketch 64 (93537) - https://sketch.com -->
    <title>icon/clear eye copy 2</title>
    <desc>Created with Sketch.</desc>
    <defs>
        <path d="M3.50404587,7.79462868 C6.4797781,10.4952988 9.37574629,11.8253488 12.2000055,11.8253488 C15.0143866,11.8253488 17.7658214,10.5042401 20.4715766,7.81778092 C20.765516,7.52593769 21.2403867,7.52763701 21.5322299,7.82157646 C21.8240732,8.11551592 21.8223738,8.59038661 21.5284344,8.88222984 C20.7043544,9.70043289 19.8689666,10.4067708 19.0226402,11.0002972 L21.1743138,13.1577474 C21.466775,13.451072 21.4660751,13.9259452 21.1727506,14.2184065 C20.879426,14.5108677 20.4045528,14.5101678 20.1120915,14.2168433 L20.1120915,14.2168433 L17.721337,11.8190894 C16.945769,12.2518394 16.1614042,12.5918834 15.368516,12.8385207 L16.5029068,15.6778716 C16.6565367,16.0625413 16.4692419,16.4989192 16.0845722,16.652549 C15.6999025,16.8061788 15.2635246,16.618884 15.1098948,16.2342144 L15.1098948,16.2342144 L13.8926582,13.1879687 C13.3324728,13.2794762 12.7682243,13.3253488 12.2000055,13.3253488 C11.6845658,13.3253488 11.1690614,13.2875983 10.6535249,13.2122616 L9.44670568,16.2342144 C9.29307586,16.618884 8.85669791,16.8061788 8.47202824,16.652549 C8.08735857,16.4989192 7.90006376,16.0625413 8.05369358,15.6778716 L9.1667386,12.8909518 C8.39207314,12.6694055 7.6174059,12.3633587 6.84284744,11.9733682 L4.60558638,14.2168433 C4.31312515,14.5101678 3.83825193,14.5108677 3.54492736,14.2184065 C3.2516028,13.9259452 3.25090292,13.451072 3.54336416,13.1577474 L5.48930712,11.2064388 C4.49115983,10.5779448 3.49330024,9.81052846 2.49596508,8.90538208 C2.189239,8.62700826 2.16625495,8.15269107 2.44462878,7.84596499 C2.7230026,7.5392389 3.19731979,7.51625486 3.50404587,7.79462868 Z" id="path-1"></path>
    </defs>
    <g id="icon/clear-eye-copy-2" stroke="none" stroke-width="1" fill="none" fill-rule="evenodd">
        <mask id="mask-2" fill="white">
            <use xlink:href="#path-1"></use>
        </mask>
        <use id="Mask" fill="#000000" fill-rule="nonzero" xlink:href="#path-1"></use>
        <g id="color/#999999" mask="url(#mask-2)" fill="#999999" fill-rule="nonzero">
            <rect id="Rectangle" x="0" y="0" width="24" height="24"></rect>
        </g>
    </g>
</svg>